<mxfile host="app.diagrams.net" modified="2021-11-11T09:43:49.131Z" agent="5.0 (Windows NT 10.0; WOW64) AppleWebKit/537.36 (KHTML, like Gecko) Chrome/77.0.3865.120 YaBrowser/19.10.3.281 Yowser/2.5 Safari/537.36" etag="jrmpMt7zcD9VL5PIaUPS" version="15.7.0" type="github">
  <diagram id="C5RBs43oDa-KdzZeNtuy" name="Page-1">
    <mxGraphModel dx="1944" dy="1818" grid="1" gridSize="10" guides="1" tooltips="1" connect="1" arrows="1" fold="1" page="1" pageScale="1" pageWidth="827" pageHeight="1169" math="0" shadow="0">
      <root>
        <mxCell id="WIyWlLk6GJQsqaUBKTNV-0" />
        <mxCell id="WIyWlLk6GJQsqaUBKTNV-1" parent="WIyWlLk6GJQsqaUBKTNV-0" />
        <mxCell id="xTyq6H0Zb5hwOV81OT_t-4" value="&lt;p style=&quot;margin: 0px ; margin-top: 4px ; text-align: center&quot;&gt;&lt;i&gt;&amp;lt;&amp;lt;Interface&amp;gt;&amp;gt;&lt;/i&gt;&lt;br&gt;&lt;b&gt;ControllerProcessor&lt;/b&gt;&lt;/p&gt;&lt;hr size=&quot;1&quot;&gt;&lt;p style=&quot;margin: 0px ; margin-left: 4px&quot;&gt;&lt;br&gt;&lt;/p&gt;&lt;hr size=&quot;1&quot;&gt;&lt;p style=&quot;margin: 0px ; margin-left: 4px&quot;&gt;+ process(Type): default void&lt;br&gt;&lt;/p&gt;" style="verticalAlign=top;align=left;overflow=fill;fontSize=12;fontFamily=Helvetica;html=1;fillColor=#ffe6cc;strokeColor=#d79b00;" parent="WIyWlLk6GJQsqaUBKTNV-1" vertex="1">
          <mxGeometry x="414" y="280" width="190" height="140" as="geometry" />
        </mxCell>
        <mxCell id="xTyq6H0Zb5hwOV81OT_t-9" value="Extends" style="endArrow=block;endSize=16;endFill=0;html=1;rounded=0;entryX=0;entryY=0.25;entryDx=0;entryDy=0;exitX=1;exitY=0.5;exitDx=0;exitDy=0;" parent="WIyWlLk6GJQsqaUBKTNV-1" source="xTyq6H0Zb5hwOV81OT_t-12" target="xTyq6H0Zb5hwOV81OT_t-4" edge="1">
          <mxGeometry width="160" relative="1" as="geometry">
            <mxPoint x="200" y="180" as="sourcePoint" />
            <mxPoint x="360" y="180" as="targetPoint" />
          </mxGeometry>
        </mxCell>
        <mxCell id="xTyq6H0Zb5hwOV81OT_t-12" value="&lt;p style=&quot;margin: 0px ; margin-top: 4px ; text-align: center&quot;&gt;&lt;b&gt;RequestProcessor&lt;/b&gt;&lt;/p&gt;&lt;hr size=&quot;1&quot;&gt;&lt;p style=&quot;margin: 0px ; margin-left: 4px&quot;&gt;- requestDataService&lt;br&gt;&lt;/p&gt;&lt;hr size=&quot;1&quot;&gt;&lt;p style=&quot;margin: 0px ; margin-left: 4px&quot;&gt;+ logic(): bool&lt;/p&gt;&lt;p style=&quot;margin: 0px ; margin-left: 4px&quot;&gt;+ process(): override&lt;br&gt;&lt;/p&gt;&lt;p style=&quot;margin: 0px ; margin-left: 4px&quot;&gt;&lt;br&gt;&lt;/p&gt;" style="verticalAlign=top;align=left;overflow=fill;fontSize=12;fontFamily=Helvetica;html=1;fillColor=#ffe6cc;strokeColor=#d79b00;" parent="WIyWlLk6GJQsqaUBKTNV-1" vertex="1">
          <mxGeometry x="10" y="40" width="160" height="105" as="geometry" />
        </mxCell>
        <mxCell id="xTyq6H0Zb5hwOV81OT_t-14" value="&lt;p style=&quot;margin: 0px ; margin-top: 4px ; text-align: center&quot;&gt;&lt;b&gt;Request2Processor&lt;/b&gt;&lt;br&gt;&lt;/p&gt;&lt;hr size=&quot;1&quot;&gt;&lt;p style=&quot;margin: 0px ; margin-left: 4px&quot;&gt;&lt;br&gt;&lt;/p&gt;&lt;hr size=&quot;1&quot;&gt;&lt;p style=&quot;margin: 0px ; margin-left: 4px&quot;&gt;+ logic(): bool&lt;/p&gt;&lt;p style=&quot;margin: 0px ; margin-left: 4px&quot;&gt;+ process(Type): override&lt;br&gt;&lt;/p&gt;&lt;p style=&quot;margin: 0px ; margin-left: 4px&quot;&gt;&lt;br&gt;&lt;/p&gt;" style="verticalAlign=top;align=left;overflow=fill;fontSize=12;fontFamily=Helvetica;html=1;fillColor=#ffe6cc;strokeColor=#d79b00;" parent="WIyWlLk6GJQsqaUBKTNV-1" vertex="1">
          <mxGeometry x="5" y="297.5" width="170" height="105" as="geometry" />
        </mxCell>
        <mxCell id="xTyq6H0Zb5hwOV81OT_t-15" value="Extends" style="endArrow=block;endSize=16;endFill=0;html=1;rounded=0;entryX=0;entryY=0.5;entryDx=0;entryDy=0;exitX=1;exitY=0.5;exitDx=0;exitDy=0;" parent="WIyWlLk6GJQsqaUBKTNV-1" source="xTyq6H0Zb5hwOV81OT_t-14" target="xTyq6H0Zb5hwOV81OT_t-4" edge="1">
          <mxGeometry width="160" relative="1" as="geometry">
            <mxPoint x="230" y="82.5" as="sourcePoint" />
            <mxPoint x="400" y="190" as="targetPoint" />
          </mxGeometry>
        </mxCell>
        <mxCell id="xTyq6H0Zb5hwOV81OT_t-16" value="&lt;p style=&quot;margin: 0px ; margin-top: 4px ; text-align: center&quot;&gt;&lt;b&gt;RequestLogicProcesor&lt;/b&gt;&lt;/p&gt;&lt;hr size=&quot;1&quot;&gt;&lt;p style=&quot;margin: 0px ; margin-left: 4px&quot;&gt;- remoteCallingSupporter&lt;br&gt;&lt;/p&gt;&lt;hr size=&quot;1&quot;&gt;&lt;p style=&quot;margin: 0px ; margin-left: 4px&quot;&gt;&lt;span&gt;+ logic(): bool @Override&lt;/span&gt;&lt;br&gt;&lt;/p&gt;" style="verticalAlign=top;align=left;overflow=fill;fontSize=12;fontFamily=Helvetica;html=1;fillColor=#d5e8d4;strokeColor=#82b366;" parent="WIyWlLk6GJQsqaUBKTNV-1" vertex="1">
          <mxGeometry x="-340" y="-90" width="160" height="90" as="geometry" />
        </mxCell>
        <mxCell id="xTyq6H0Zb5hwOV81OT_t-17" value="&lt;p style=&quot;margin: 0px ; margin-top: 4px ; text-align: center&quot;&gt;&lt;b&gt;Request3Processor&lt;/b&gt;&lt;br&gt;&lt;/p&gt;&lt;hr size=&quot;1&quot;&gt;&lt;p style=&quot;margin: 0px ; margin-left: 4px&quot;&gt;&lt;br&gt;&lt;/p&gt;&lt;hr size=&quot;1&quot;&gt;&lt;p style=&quot;margin: 0px ; margin-left: 4px&quot;&gt;+ logic(): bool&lt;/p&gt;&lt;p style=&quot;margin: 0px ; margin-left: 4px&quot;&gt;+ process(Type): override&lt;br&gt;&lt;/p&gt;&lt;p style=&quot;margin: 0px ; margin-left: 4px&quot;&gt;&lt;br&gt;&lt;/p&gt;" style="verticalAlign=top;align=left;overflow=fill;fontSize=12;fontFamily=Helvetica;html=1;fillColor=#ffe6cc;strokeColor=#d79b00;" parent="WIyWlLk6GJQsqaUBKTNV-1" vertex="1">
          <mxGeometry x="10" y="560" width="160" height="105" as="geometry" />
        </mxCell>
        <mxCell id="xTyq6H0Zb5hwOV81OT_t-18" value="Extends" style="endArrow=block;endSize=16;endFill=0;html=1;rounded=0;exitX=1;exitY=0.5;exitDx=0;exitDy=0;entryX=0;entryY=0.75;entryDx=0;entryDy=0;" parent="WIyWlLk6GJQsqaUBKTNV-1" source="xTyq6H0Zb5hwOV81OT_t-17" target="xTyq6H0Zb5hwOV81OT_t-4" edge="1">
          <mxGeometry width="160" relative="1" as="geometry">
            <mxPoint x="130" y="278" as="sourcePoint" />
            <mxPoint x="390" y="240" as="targetPoint" />
          </mxGeometry>
        </mxCell>
        <mxCell id="xTyq6H0Zb5hwOV81OT_t-19" value="Extends" style="endArrow=block;endSize=16;endFill=0;html=1;rounded=0;entryX=0;entryY=0.5;entryDx=0;entryDy=0;exitX=1;exitY=0.5;exitDx=0;exitDy=0;" parent="WIyWlLk6GJQsqaUBKTNV-1" source="xTyq6H0Zb5hwOV81OT_t-16" target="xTyq6H0Zb5hwOV81OT_t-12" edge="1">
          <mxGeometry width="160" relative="1" as="geometry">
            <mxPoint x="-540" y="200" as="sourcePoint" />
            <mxPoint x="-246" y="360.5" as="targetPoint" />
          </mxGeometry>
        </mxCell>
        <mxCell id="xTyq6H0Zb5hwOV81OT_t-26" value="&lt;p style=&quot;margin: 0px ; margin-top: 4px ; text-align: center&quot;&gt;&lt;b&gt;HostRestController&lt;/b&gt;&lt;/p&gt;&lt;hr size=&quot;1&quot;&gt;&lt;p style=&quot;margin: 0px ; margin-left: 4px&quot;&gt;+ postRequestHendler: RequestHandler&lt;/p&gt;&lt;hr size=&quot;1&quot;&gt;&lt;p style=&quot;margin: 0px ; margin-left: 4px&quot;&gt;+ @PostMapping methodName: ResponseEntity&lt;br&gt;&lt;/p&gt;&lt;p style=&quot;margin: 0px ; margin-left: 4px&quot;&gt;+ @GetMapping methodName: ResponseEntity&lt;br&gt;&lt;/p&gt;" style="verticalAlign=top;align=left;overflow=fill;fontSize=12;fontFamily=Helvetica;html=1;fillColor=#ffe6cc;strokeColor=#d79b00;" parent="WIyWlLk6GJQsqaUBKTNV-1" vertex="1">
          <mxGeometry x="-790" y="198" width="270" height="90" as="geometry" />
        </mxCell>
        <mxCell id="xTyq6H0Zb5hwOV81OT_t-27" value="process()" style="html=1;verticalAlign=bottom;endArrow=block;rounded=0;entryX=0;entryY=0.75;entryDx=0;entryDy=0;exitX=1;exitY=0.5;exitDx=0;exitDy=0;" parent="WIyWlLk6GJQsqaUBKTNV-1" source="xTyq6H0Zb5hwOV81OT_t-26" target="xTyq6H0Zb5hwOV81OT_t-16" edge="1">
          <mxGeometry width="80" relative="1" as="geometry">
            <mxPoint x="-430" y="180" as="sourcePoint" />
            <mxPoint x="-350" y="180" as="targetPoint" />
          </mxGeometry>
        </mxCell>
        <mxCell id="xTyq6H0Zb5hwOV81OT_t-28" value="" style="endArrow=diamondThin;endFill=0;endSize=24;html=1;rounded=0;entryX=0.5;entryY=0;entryDx=0;entryDy=0;exitX=0.5;exitY=0;exitDx=0;exitDy=0;" parent="WIyWlLk6GJQsqaUBKTNV-1" source="xTyq6H0Zb5hwOV81OT_t-4" target="xTyq6H0Zb5hwOV81OT_t-26" edge="1">
          <mxGeometry width="160" relative="1" as="geometry">
            <mxPoint x="-80" y="-60" as="sourcePoint" />
            <mxPoint x="-330" y="-40" as="targetPoint" />
            <Array as="points">
              <mxPoint x="510" y="-120" />
              <mxPoint x="-655" y="-120" />
            </Array>
          </mxGeometry>
        </mxCell>
        <mxCell id="xTyq6H0Zb5hwOV81OT_t-29" value="&lt;p style=&quot;margin: 0px ; margin-top: 4px ; text-align: center&quot;&gt;&lt;b&gt;Request2LogicProcesor&lt;/b&gt;&lt;br&gt;&lt;/p&gt;&lt;hr size=&quot;1&quot;&gt;&lt;p style=&quot;margin: 0px ; margin-left: 4px&quot;&gt;- remoteCallingSupporter&lt;br&gt;&lt;/p&gt;&lt;hr size=&quot;1&quot;&gt;&lt;p style=&quot;margin: 0px ; margin-left: 4px&quot;&gt;+ process(): override&lt;/p&gt;&lt;p style=&quot;margin: 0px ; margin-left: 4px&quot;&gt;- logic(): bool&lt;/p&gt;" style="verticalAlign=top;align=left;overflow=fill;fontSize=12;fontFamily=Helvetica;html=1;fillColor=#d5e8d4;strokeColor=#82b366;" parent="WIyWlLk6GJQsqaUBKTNV-1" vertex="1">
          <mxGeometry x="-350" y="305" width="160" height="90" as="geometry" />
        </mxCell>
        <mxCell id="xTyq6H0Zb5hwOV81OT_t-30" value="Extends" style="endArrow=block;endSize=16;endFill=0;html=1;rounded=0;entryX=0;entryY=0.5;entryDx=0;entryDy=0;exitX=1;exitY=0.5;exitDx=0;exitDy=0;" parent="WIyWlLk6GJQsqaUBKTNV-1" source="xTyq6H0Zb5hwOV81OT_t-29" target="xTyq6H0Zb5hwOV81OT_t-14" edge="1">
          <mxGeometry width="160" relative="1" as="geometry">
            <mxPoint x="-160" y="180" as="sourcePoint" />
            <mxPoint x="-50" y="180" as="targetPoint" />
          </mxGeometry>
        </mxCell>
        <mxCell id="xTyq6H0Zb5hwOV81OT_t-31" value="process()" style="html=1;verticalAlign=bottom;endArrow=block;rounded=0;entryX=0;entryY=0.5;entryDx=0;entryDy=0;exitX=1;exitY=0.5;exitDx=0;exitDy=0;" parent="WIyWlLk6GJQsqaUBKTNV-1" source="xTyq6H0Zb5hwOV81OT_t-26" target="xTyq6H0Zb5hwOV81OT_t-29" edge="1">
          <mxGeometry width="80" relative="1" as="geometry">
            <mxPoint x="-450" y="97.5" as="sourcePoint" />
            <mxPoint x="-300" y="105" as="targetPoint" />
          </mxGeometry>
        </mxCell>
        <mxCell id="xTyq6H0Zb5hwOV81OT_t-34" value="&lt;p style=&quot;margin: 0px ; margin-top: 4px ; text-align: center&quot;&gt;&lt;b style=&quot;color: rgb(0 , 0 , 0)&quot;&gt;RequestLogic2Procesor&lt;/b&gt;&lt;br&gt;&lt;/p&gt;&lt;hr size=&quot;1&quot;&gt;&lt;p style=&quot;margin: 0px ; margin-left: 4px&quot;&gt;- remoteCallingSupporter&lt;br&gt;&lt;/p&gt;&lt;hr size=&quot;1&quot;&gt;&lt;p style=&quot;margin: 0px ; margin-left: 4px&quot;&gt;&lt;span&gt;+ logic(): bool @Override&lt;/span&gt;&lt;br&gt;&lt;/p&gt;" style="verticalAlign=top;align=left;overflow=fill;fontSize=12;fontFamily=Helvetica;html=1;fillColor=#E6E6E6;strokeColor=#666666;dashed=1;fontColor=#333333;" parent="WIyWlLk6GJQsqaUBKTNV-1" vertex="1">
          <mxGeometry x="-310" y="100" width="160" height="90" as="geometry" />
        </mxCell>
        <mxCell id="xTyq6H0Zb5hwOV81OT_t-35" value="Extends" style="endArrow=block;endSize=16;endFill=0;html=1;rounded=0;entryX=0;entryY=0.75;entryDx=0;entryDy=0;exitX=1;exitY=0.5;exitDx=0;exitDy=0;dashed=1;" parent="WIyWlLk6GJQsqaUBKTNV-1" source="xTyq6H0Zb5hwOV81OT_t-34" target="xTyq6H0Zb5hwOV81OT_t-12" edge="1">
          <mxGeometry width="160" relative="1" as="geometry">
            <mxPoint x="-170" y="-35" as="sourcePoint" />
            <mxPoint x="-30" y="82.5" as="targetPoint" />
          </mxGeometry>
        </mxCell>
        <mxCell id="xTyq6H0Zb5hwOV81OT_t-36" value="process()" style="html=1;verticalAlign=bottom;endArrow=block;rounded=0;entryX=0;entryY=0.5;entryDx=0;entryDy=0;exitX=1;exitY=0.5;exitDx=0;exitDy=0;dashed=1;" parent="WIyWlLk6GJQsqaUBKTNV-1" source="xTyq6H0Zb5hwOV81OT_t-26" target="xTyq6H0Zb5hwOV81OT_t-34" edge="1">
          <mxGeometry width="80" relative="1" as="geometry">
            <mxPoint x="-520" y="260" as="sourcePoint" />
            <mxPoint x="-330" y="-12.5" as="targetPoint" />
          </mxGeometry>
        </mxCell>
        <mxCell id="xTyq6H0Zb5hwOV81OT_t-53" value="Классы &lt;b&gt;...HandlerImpl&lt;/b&gt; содержат основной метод process()&amp;nbsp;&lt;br style=&quot;padding: 0px ; margin: 0px&quot;&gt;обеспечивающий&amp;nbsp;стандартную обработку запроса&lt;br&gt;и вызов метода logic,&amp;nbsp;общую для всех запросов данного типа&lt;br style=&quot;padding: 0px ; margin: 0px&quot;&gt;&amp;nbsp;" style="text;html=1;align=left;verticalAlign=middle;resizable=0;points=[];autosize=1;strokeColor=#666666;fillColor=#f5f5f5;fontColor=#333333;" parent="WIyWlLk6GJQsqaUBKTNV-1" vertex="1">
          <mxGeometry x="20" y="-70" width="360" height="60" as="geometry" />
        </mxCell>
        <mxCell id="xTyq6H0Zb5hwOV81OT_t-54" value="Классы &lt;b&gt;...Handler&lt;/b&gt; унаследуют метод process(), &lt;br&gt;в которых необходимо переписать метод logic().&lt;br&gt;Создаются для каждого API метода контроллера HTTP&amp;nbsp;" style="text;html=1;align=left;verticalAlign=middle;resizable=0;points=[];autosize=1;strokeColor=#666666;fillColor=#f5f5f5;fontColor=#333333;" parent="WIyWlLk6GJQsqaUBKTNV-1" vertex="1">
          <mxGeometry x="-440" y="-190" width="330" height="50" as="geometry" />
        </mxCell>
        <mxCell id="xTyq6H0Zb5hwOV81OT_t-56" value="Класс обработки&amp;nbsp; POST запросов с body" style="text;html=1;strokeColor=#666666;fillColor=#f5f5f5;align=left;verticalAlign=middle;whiteSpace=wrap;rounded=0;dashed=1;fontColor=#333333;" parent="WIyWlLk6GJQsqaUBKTNV-1" vertex="1">
          <mxGeometry x="200" y="20" width="140" height="30" as="geometry" />
        </mxCell>
        <mxCell id="xTyq6H0Zb5hwOV81OT_t-57" value="" style="endArrow=none;dashed=1;html=1;dashPattern=1 3;strokeWidth=2;rounded=0;entryX=0;entryY=0.5;entryDx=0;entryDy=0;exitX=1;exitY=0.25;exitDx=0;exitDy=0;" parent="WIyWlLk6GJQsqaUBKTNV-1" source="xTyq6H0Zb5hwOV81OT_t-12" target="xTyq6H0Zb5hwOV81OT_t-56" edge="1">
          <mxGeometry width="50" height="50" relative="1" as="geometry">
            <mxPoint x="-120" y="210" as="sourcePoint" />
            <mxPoint x="-70" y="160" as="targetPoint" />
          </mxGeometry>
        </mxCell>
        <mxCell id="xTyq6H0Zb5hwOV81OT_t-58" value="Класс обработки&amp;nbsp; POST запросов без body" style="text;html=1;strokeColor=#666666;fillColor=#f5f5f5;align=left;verticalAlign=middle;whiteSpace=wrap;rounded=0;dashed=1;fontColor=#333333;" parent="WIyWlLk6GJQsqaUBKTNV-1" vertex="1">
          <mxGeometry x="210" y="380" width="140" height="30" as="geometry" />
        </mxCell>
        <mxCell id="xTyq6H0Zb5hwOV81OT_t-59" value="" style="endArrow=none;dashed=1;html=1;dashPattern=1 3;strokeWidth=2;rounded=0;entryX=0;entryY=0.5;entryDx=0;entryDy=0;exitX=1;exitY=0.75;exitDx=0;exitDy=0;" parent="WIyWlLk6GJQsqaUBKTNV-1" source="xTyq6H0Zb5hwOV81OT_t-14" target="xTyq6H0Zb5hwOV81OT_t-58" edge="1">
          <mxGeometry width="50" height="50" relative="1" as="geometry">
            <mxPoint x="-120" y="350" as="sourcePoint" />
            <mxPoint x="-70" y="300" as="targetPoint" />
          </mxGeometry>
        </mxCell>
        <mxCell id="xTyq6H0Zb5hwOV81OT_t-60" value="Класс обработки&amp;nbsp; GET запросов без body" style="text;html=1;strokeColor=#666666;fillColor=#f5f5f5;align=left;verticalAlign=middle;whiteSpace=wrap;rounded=0;dashed=1;fontColor=#333333;" parent="WIyWlLk6GJQsqaUBKTNV-1" vertex="1">
          <mxGeometry x="230" y="640" width="130" height="30" as="geometry" />
        </mxCell>
        <mxCell id="xTyq6H0Zb5hwOV81OT_t-61" value="" style="endArrow=none;dashed=1;html=1;dashPattern=1 3;strokeWidth=2;rounded=0;entryX=0;entryY=0.5;entryDx=0;entryDy=0;exitX=1;exitY=0.75;exitDx=0;exitDy=0;" parent="WIyWlLk6GJQsqaUBKTNV-1" target="xTyq6H0Zb5hwOV81OT_t-60" edge="1">
          <mxGeometry width="50" height="50" relative="1" as="geometry">
            <mxPoint x="180" y="648.75" as="sourcePoint" />
            <mxPoint x="-60" y="310" as="targetPoint" />
          </mxGeometry>
        </mxCell>
        <mxCell id="xTyq6H0Zb5hwOV81OT_t-62" value="&lt;p style=&quot;margin: 0px ; margin-top: 4px ; text-align: center&quot;&gt;&lt;b&gt;Request3LogicProcesor&lt;/b&gt;&lt;br&gt;&lt;/p&gt;&lt;hr size=&quot;1&quot;&gt;&lt;p style=&quot;margin: 0px ; margin-left: 4px&quot;&gt;- remoteCallingSupporter&lt;br&gt;&lt;/p&gt;&lt;hr size=&quot;1&quot;&gt;&lt;p style=&quot;margin: 0px ; margin-left: 4px&quot;&gt;+ process(): override&lt;/p&gt;&lt;p style=&quot;margin: 0px ; margin-left: 4px&quot;&gt;- logic(): bool&lt;/p&gt;" style="verticalAlign=top;align=left;overflow=fill;fontSize=12;fontFamily=Helvetica;html=1;fillColor=#d5e8d4;strokeColor=#82b366;" parent="WIyWlLk6GJQsqaUBKTNV-1" vertex="1">
          <mxGeometry x="-320" y="520" width="160" height="90" as="geometry" />
        </mxCell>
        <mxCell id="xTyq6H0Zb5hwOV81OT_t-63" value="Extends" style="endArrow=block;endSize=16;endFill=0;html=1;rounded=0;entryX=0;entryY=0.5;entryDx=0;entryDy=0;exitX=1;exitY=0.5;exitDx=0;exitDy=0;" parent="WIyWlLk6GJQsqaUBKTNV-1" source="xTyq6H0Zb5hwOV81OT_t-62" target="xTyq6H0Zb5hwOV81OT_t-17" edge="1">
          <mxGeometry width="160" relative="1" as="geometry">
            <mxPoint x="-180" y="460" as="sourcePoint" />
            <mxPoint x="15" y="460" as="targetPoint" />
          </mxGeometry>
        </mxCell>
        <mxCell id="xTyq6H0Zb5hwOV81OT_t-64" value="process()" style="html=1;verticalAlign=bottom;endArrow=block;rounded=0;entryX=0;entryY=0.5;entryDx=0;entryDy=0;exitX=1;exitY=0.5;exitDx=0;exitDy=0;" parent="WIyWlLk6GJQsqaUBKTNV-1" source="xTyq6H0Zb5hwOV81OT_t-26" target="xTyq6H0Zb5hwOV81OT_t-62" edge="1">
          <mxGeometry width="80" relative="1" as="geometry">
            <mxPoint x="-510" y="253" as="sourcePoint" />
            <mxPoint x="-340" y="360" as="targetPoint" />
          </mxGeometry>
        </mxCell>
        <mxCell id="xTyq6H0Zb5hwOV81OT_t-65" value="&lt;p style=&quot;margin: 0px ; margin-top: 4px ; text-align: center&quot;&gt;&lt;i&gt;&amp;lt;&amp;lt;Interface&amp;gt;&amp;gt;&lt;/i&gt;&lt;br&gt;&lt;b&gt;ControllerProcessor&lt;/b&gt;&lt;/p&gt;&lt;hr size=&quot;1&quot;&gt;&lt;p style=&quot;margin: 0px ; margin-left: 4px&quot;&gt;+ process(): ProcResult&lt;br&gt;&lt;/p&gt;" style="verticalAlign=top;align=left;overflow=fill;fontSize=12;fontFamily=Helvetica;html=1;fillColor=#ffe6cc;strokeColor=#d79b00;" parent="WIyWlLk6GJQsqaUBKTNV-1" vertex="1">
          <mxGeometry x="-190" y="-950" width="190" height="140" as="geometry" />
        </mxCell>
        <mxCell id="xTyq6H0Zb5hwOV81OT_t-66" value="&lt;p style=&quot;margin: 0px ; margin-top: 4px ; text-align: center&quot;&gt;&lt;b&gt;RequestProcessor&lt;/b&gt;&lt;/p&gt;&lt;hr size=&quot;1&quot;&gt;&lt;p style=&quot;margin: 0px ; margin-left: 4px&quot;&gt;# logic(): ProcResult&lt;/p&gt;&lt;p style=&quot;margin: 0px ; margin-left: 4px&quot;&gt;+ process(): override ProcResult&lt;/p&gt;&lt;p style=&quot;margin: 0px ; margin-left: 4px&quot;&gt;&lt;br&gt;&lt;/p&gt;" style="verticalAlign=top;align=left;overflow=fill;fontSize=12;fontFamily=Helvetica;html=1;fillColor=#ffe6cc;strokeColor=#d79b00;" parent="WIyWlLk6GJQsqaUBKTNV-1" vertex="1">
          <mxGeometry x="175" y="-701.5" width="240" height="105" as="geometry" />
        </mxCell>
        <mxCell id="xTyq6H0Zb5hwOV81OT_t-67" value="&lt;p style=&quot;margin: 0px ; margin-top: 4px ; text-align: center&quot;&gt;&lt;b&gt;LogicProcessor&lt;/b&gt;&lt;/p&gt;&lt;hr size=&quot;1&quot;&gt;&lt;p style=&quot;margin: 0px ; margin-left: 4px&quot;&gt;&lt;span&gt;# logic(): ProcResult @Override&lt;/span&gt;&lt;br&gt;&lt;/p&gt;" style="verticalAlign=top;align=left;overflow=fill;fontSize=12;fontFamily=Helvetica;html=1;fillColor=#d5e8d4;strokeColor=#82b366;" parent="WIyWlLk6GJQsqaUBKTNV-1" vertex="1">
          <mxGeometry x="-180" y="-694" width="180" height="90" as="geometry" />
        </mxCell>
        <mxCell id="xTyq6H0Zb5hwOV81OT_t-68" value="&lt;p style=&quot;margin: 0px ; margin-top: 4px ; text-align: center&quot;&gt;&lt;b&gt;RestController&lt;/b&gt;&lt;/p&gt;&lt;hr size=&quot;1&quot;&gt;&lt;p style=&quot;margin: 0px ; margin-left: 4px&quot;&gt;+ controllerProcesor: ControllerProcessor&lt;/p&gt;&lt;hr size=&quot;1&quot;&gt;&lt;p style=&quot;margin: 0px ; margin-left: 4px&quot;&gt;+ @RequestMapping methodName: ResponseEntity&lt;br&gt;&lt;/p&gt;&lt;p style=&quot;margin: 0px ; margin-left: 4px&quot;&gt;&lt;br&gt;&lt;/p&gt;" style="verticalAlign=top;align=left;overflow=fill;fontSize=12;fontFamily=Helvetica;html=1;fillColor=#ffe6cc;strokeColor=#d79b00;" parent="WIyWlLk6GJQsqaUBKTNV-1" vertex="1">
          <mxGeometry x="-680" y="-694" width="300" height="90" as="geometry" />
        </mxCell>
        <mxCell id="xTyq6H0Zb5hwOV81OT_t-69" value="Implements" style="endArrow=block;endSize=16;endFill=0;html=1;rounded=0;exitX=0.5;exitY=0;exitDx=0;exitDy=0;entryX=1;entryY=0.5;entryDx=0;entryDy=0;" parent="WIyWlLk6GJQsqaUBKTNV-1" source="xTyq6H0Zb5hwOV81OT_t-66" target="xTyq6H0Zb5hwOV81OT_t-65" edge="1">
          <mxGeometry width="160" relative="1" as="geometry">
            <mxPoint x="60" y="-991.25" as="sourcePoint" />
            <mxPoint x="130" y="-970" as="targetPoint" />
          </mxGeometry>
        </mxCell>
        <mxCell id="xTyq6H0Zb5hwOV81OT_t-70" value="Extends" style="endArrow=block;endSize=16;endFill=0;html=1;rounded=0;entryX=0;entryY=0.5;entryDx=0;entryDy=0;exitX=1;exitY=0.5;exitDx=0;exitDy=0;" parent="WIyWlLk6GJQsqaUBKTNV-1" source="xTyq6H0Zb5hwOV81OT_t-67" target="xTyq6H0Zb5hwOV81OT_t-66" edge="1">
          <mxGeometry width="160" relative="1" as="geometry">
            <mxPoint x="30" y="-490" as="sourcePoint" />
            <mxPoint x="220" y="-352.5" as="targetPoint" />
          </mxGeometry>
        </mxCell>
        <mxCell id="xTyq6H0Zb5hwOV81OT_t-74" value="" style="endArrow=diamondThin;endFill=0;endSize=24;html=1;rounded=0;entryX=0.5;entryY=0;entryDx=0;entryDy=0;exitX=0;exitY=0.5;exitDx=0;exitDy=0;" parent="WIyWlLk6GJQsqaUBKTNV-1" source="xTyq6H0Zb5hwOV81OT_t-65" target="xTyq6H0Zb5hwOV81OT_t-68" edge="1">
          <mxGeometry width="160" relative="1" as="geometry">
            <mxPoint x="-390" y="-850" as="sourcePoint" />
            <mxPoint x="-230" y="-850" as="targetPoint" />
          </mxGeometry>
        </mxCell>
        <mxCell id="xTyq6H0Zb5hwOV81OT_t-76" value="" style="endArrow=classic;html=1;rounded=0;entryX=0;entryY=0.5;entryDx=0;entryDy=0;exitX=1;exitY=0.5;exitDx=0;exitDy=0;" parent="WIyWlLk6GJQsqaUBKTNV-1" source="xTyq6H0Zb5hwOV81OT_t-68" target="xTyq6H0Zb5hwOV81OT_t-67" edge="1">
          <mxGeometry relative="1" as="geometry">
            <mxPoint x="-350" y="-550" as="sourcePoint" />
            <mxPoint x="-190" y="-550" as="targetPoint" />
          </mxGeometry>
        </mxCell>
        <mxCell id="xTyq6H0Zb5hwOV81OT_t-77" value="&lt;span style=&quot;font-size: 12px ; text-align: left ; background-color: rgb(248 , 249 , 250)&quot;&gt;ControllerProcessor::&lt;/span&gt;process()" style="edgeLabel;resizable=0;html=1;align=center;verticalAlign=middle;dashed=1;fillColor=#E6E6E6;gradientColor=none;" parent="xTyq6H0Zb5hwOV81OT_t-76" connectable="0" vertex="1">
          <mxGeometry relative="1" as="geometry" />
        </mxCell>
        <mxCell id="xTyq6H0Zb5hwOV81OT_t-78" value="1..*" style="edgeLabel;resizable=0;html=1;align=left;verticalAlign=bottom;dashed=1;fillColor=#E6E6E6;gradientColor=none;" parent="xTyq6H0Zb5hwOV81OT_t-76" connectable="0" vertex="1">
          <mxGeometry x="-1" relative="1" as="geometry" />
        </mxCell>
        <mxCell id="xTyq6H0Zb5hwOV81OT_t-79" value="" style="edgeLabel;resizable=0;html=1;align=right;verticalAlign=bottom;dashed=1;fillColor=#E6E6E6;gradientColor=none;" parent="xTyq6H0Zb5hwOV81OT_t-76" connectable="0" vertex="1">
          <mxGeometry x="1" relative="1" as="geometry" />
        </mxCell>
        <mxCell id="YX-hszHRPixk2l3rXV3P-4" value="Tamplate A&amp;nbsp;" style="text;html=1;strokeColor=none;fillColor=none;align=center;verticalAlign=middle;whiteSpace=wrap;rounded=0;" vertex="1" parent="WIyWlLk6GJQsqaUBKTNV-1">
          <mxGeometry x="-300" y="-740" width="110" height="30" as="geometry" />
        </mxCell>
        <mxCell id="YX-hszHRPixk2l3rXV3P-7" value="&lt;p style=&quot;margin: 0px ; margin-top: 4px ; text-align: center&quot;&gt;&lt;i&gt;&amp;lt;&amp;lt;Interface&amp;gt;&amp;gt;&lt;/i&gt;&lt;br&gt;&lt;b&gt;ControllerProcessor&lt;/b&gt;&lt;br&gt;&lt;/p&gt;&lt;hr size=&quot;1&quot;&gt;&lt;p style=&quot;margin: 0px ; margin-left: 4px&quot;&gt;&lt;br&gt;&lt;/p&gt;&lt;hr size=&quot;1&quot;&gt;&lt;p style=&quot;margin: 0px ; margin-left: 4px&quot;&gt;+ process(): ProcResult&lt;br&gt;&lt;/p&gt;" style="verticalAlign=top;align=left;overflow=fill;fontSize=12;fontFamily=Helvetica;html=1;fillColor=#ffe6cc;strokeColor=#d79b00;" vertex="1" parent="WIyWlLk6GJQsqaUBKTNV-1">
          <mxGeometry x="1310" y="-980" width="190" height="140" as="geometry" />
        </mxCell>
        <mxCell id="YX-hszHRPixk2l3rXV3P-8" value="&lt;p style=&quot;margin: 0px ; margin-top: 4px ; text-align: center&quot;&gt;&lt;b&gt;RequestProcessor&lt;/b&gt;&lt;/p&gt;&lt;hr size=&quot;1&quot;&gt;&lt;p style=&quot;margin: 0px ; margin-left: 4px&quot;&gt;- requestDataService&lt;br&gt;&lt;/p&gt;&lt;hr size=&quot;1&quot;&gt;&lt;p style=&quot;margin: 0px ; margin-left: 4px&quot;&gt;# logic(): ProcResult&lt;/p&gt;&lt;p style=&quot;margin: 0px ; margin-left: 4px&quot;&gt;+ process(): override ProcResult&lt;/p&gt;&lt;br&gt;&lt;p style=&quot;margin: 0px ; margin-left: 4px&quot;&gt;&lt;br&gt;&lt;/p&gt;" style="verticalAlign=top;align=left;overflow=fill;fontSize=12;fontFamily=Helvetica;html=1;fillColor=#ffe6cc;strokeColor=#d79b00;" vertex="1" parent="WIyWlLk6GJQsqaUBKTNV-1">
          <mxGeometry x="1610" y="-724" width="240" height="99" as="geometry" />
        </mxCell>
        <mxCell id="YX-hszHRPixk2l3rXV3P-10" value="&lt;p style=&quot;margin: 0px ; margin-top: 4px ; text-align: center&quot;&gt;&lt;b&gt;RestController&lt;/b&gt;&lt;/p&gt;&lt;hr size=&quot;1&quot;&gt;&lt;p style=&quot;margin: 0px ; margin-left: 4px&quot;&gt;+ controllerProcesor: ControllerProcessor&lt;/p&gt;&lt;hr size=&quot;1&quot;&gt;&lt;p style=&quot;margin: 0px ; margin-left: 4px&quot;&gt;+ @Request Mapping methodName: ResponseEntity&lt;br&gt;&lt;/p&gt;&lt;p style=&quot;margin: 0px ; margin-left: 4px&quot;&gt;&lt;br&gt;&lt;/p&gt;" style="verticalAlign=top;align=left;overflow=fill;fontSize=12;fontFamily=Helvetica;html=1;fillColor=#ffe6cc;strokeColor=#d79b00;" vertex="1" parent="WIyWlLk6GJQsqaUBKTNV-1">
          <mxGeometry x="910" y="-724" width="300" height="99" as="geometry" />
        </mxCell>
        <mxCell id="YX-hszHRPixk2l3rXV3P-11" value="Implements" style="endArrow=block;endSize=16;endFill=0;html=1;rounded=0;exitX=0.5;exitY=0;exitDx=0;exitDy=0;entryX=1;entryY=0.5;entryDx=0;entryDy=0;" edge="1" parent="WIyWlLk6GJQsqaUBKTNV-1" source="YX-hszHRPixk2l3rXV3P-8" target="YX-hszHRPixk2l3rXV3P-7">
          <mxGeometry width="160" relative="1" as="geometry">
            <mxPoint x="1560" y="-1021.25" as="sourcePoint" />
            <mxPoint x="1630" y="-1000" as="targetPoint" />
          </mxGeometry>
        </mxCell>
        <mxCell id="YX-hszHRPixk2l3rXV3P-13" value="" style="endArrow=diamondThin;endFill=0;endSize=24;html=1;rounded=0;entryX=0.5;entryY=0;entryDx=0;entryDy=0;exitX=0;exitY=0.5;exitDx=0;exitDy=0;" edge="1" parent="WIyWlLk6GJQsqaUBKTNV-1" source="YX-hszHRPixk2l3rXV3P-7" target="YX-hszHRPixk2l3rXV3P-10">
          <mxGeometry width="160" relative="1" as="geometry">
            <mxPoint x="1110" y="-880" as="sourcePoint" />
            <mxPoint x="1270" y="-880" as="targetPoint" />
          </mxGeometry>
        </mxCell>
        <mxCell id="YX-hszHRPixk2l3rXV3P-18" value="" style="endArrow=classic;html=1;rounded=0;exitX=1;exitY=0.75;exitDx=0;exitDy=0;entryX=0;entryY=0.75;entryDx=0;entryDy=0;" edge="1" parent="WIyWlLk6GJQsqaUBKTNV-1" source="YX-hszHRPixk2l3rXV3P-10" target="YX-hszHRPixk2l3rXV3P-8">
          <mxGeometry relative="1" as="geometry">
            <mxPoint x="1180" y="-669" as="sourcePoint" />
            <mxPoint x="1580" y="-700" as="targetPoint" />
            <Array as="points" />
          </mxGeometry>
        </mxCell>
        <mxCell id="YX-hszHRPixk2l3rXV3P-19" value="&lt;span style=&quot;font-size: 12px ; text-align: left ; background-color: rgb(248 , 249 , 250)&quot;&gt;ControllerProcessor::&lt;/span&gt;process()" style="edgeLabel;resizable=0;html=1;align=center;verticalAlign=middle;dashed=1;fillColor=#E6E6E6;gradientColor=none;" connectable="0" vertex="1" parent="YX-hszHRPixk2l3rXV3P-18">
          <mxGeometry relative="1" as="geometry" />
        </mxCell>
        <mxCell id="YX-hszHRPixk2l3rXV3P-20" value="1..*" style="edgeLabel;resizable=0;html=1;align=left;verticalAlign=bottom;dashed=1;fillColor=#E6E6E6;gradientColor=none;" connectable="0" vertex="1" parent="YX-hszHRPixk2l3rXV3P-18">
          <mxGeometry x="-1" relative="1" as="geometry" />
        </mxCell>
        <mxCell id="YX-hszHRPixk2l3rXV3P-21" value="" style="edgeLabel;resizable=0;html=1;align=right;verticalAlign=bottom;dashed=1;fillColor=#E6E6E6;gradientColor=none;" connectable="0" vertex="1" parent="YX-hszHRPixk2l3rXV3P-18">
          <mxGeometry x="1" relative="1" as="geometry" />
        </mxCell>
      </root>
    </mxGraphModel>
  </diagram>
</mxfile>
